<svg xmlns="http://www.w3.org/2000/svg" version="1.1" xmlns:xlink="http://www.w3.org/1999/xlink"
     xmlns:svgjs="http://svgjs.com/svgjs" height="123.67902221679688" width="254.97000122070312">
    <defs id="SvgjsDefs1094"></defs>
    <g id="SvgjsG1095" rel="mainfill" name="main_text" xmlns:name="main_text"
       transform="translate(-2.630000114440918,-116.92098388671874)" fill="#000000">
        <path d="M6.54 236.10L6.54 216.65L2.63 216.65L2.63 240L15.17 240L15.17 236.10L6.54 236.10ZM29.95 216.35C14.57 216.35 14.54 240.30 29.95 240.30C45.29 240.30 45.26 216.35 29.95 216.35ZM29.95 236.53C19.84 236.53 19.88 220.16 29.95 220.16C40.05 220.16 40.05 236.53 29.95 236.53ZM57.73 216.65L52.59 230.43L47.49 216.65L43.29 216.65L52.59 240.60L61.93 216.65ZM80.17 220.56L80.17 216.65L64.60 216.65L64.60 240L80.17 240L80.17 236.10L68.50 236.10L68.50 230.26L78.21 230.26L78.21 226.39L68.50 226.39L68.50 220.56ZM106.62 236.43C102.32 236.43 98.88 233.33 98.88 228.33C98.88 223.62 101.82 220.22 106.62 220.22C108.76 220.22 110.72 221.09 112.12 222.49L114.86 219.76C112.76 217.62 109.86 216.32 106.62 216.32C99.78 216.32 94.92 221.29 94.92 228.33C94.92 235.66 100.18 240.33 106.62 240.33C109.86 240.33 112.76 239.03 114.86 236.93L112.12 234.16C110.72 235.56 108.76 236.43 106.62 236.43ZM129.47 216.35C114.09 216.35 114.06 240.30 129.47 240.30C144.81 240.30 144.77 216.35 129.47 216.35ZM129.47 236.53C119.36 236.53 119.39 220.16 129.47 220.16C139.57 220.16 139.57 236.53 129.47 236.53ZM156.05 216.35C140.67 216.35 140.64 240.30 156.05 240.30C171.39 240.30 171.35 216.35 156.05 216.35ZM156.05 236.53C145.94 236.53 145.97 220.16 156.05 220.16C166.15 220.16 166.15 236.53 156.05 236.53ZM190.36 216.65L185.50 216.65L175.92 228.43L175.92 216.65L172.02 216.65L172.02 240L175.92 240L175.92 233.60L178.12 231.13L185.33 240L190.43 240L180.73 228.53ZM193.67 240L197.57 240L197.57 216.65L193.67 216.65L193.67 240ZM222.35 216.65L218.48 216.65L218.48 233.26L206.84 216.65L202.90 216.65L202.90 240L206.81 240L206.81 223.39L218.41 240L222.35 240ZM238.26 226.73L238.26 230.16L244.46 230.16L244.46 233.80C243.02 235.43 240.96 236.43 238.62 236.43C234.32 236.43 230.85 234.03 230.85 228.33C230.85 223.22 234.32 220.22 238.62 220.22C240.76 220.22 242.72 221.09 244.13 222.49L246.86 219.76C244.76 217.62 241.86 216.32 238.62 216.32C232.19 216.32 226.95 221.39 226.95 228.33C226.95 235.96 231.85 240.33 238.12 240.33C240.89 240.33 242.86 239.67 244.76 237.90L244.96 240.03L248.36 240.03L248.36 226.73ZM253.43 216.65L253.43 233.20L257.33 233.20L257.33 216.65L253.43 216.65ZM255.36 235.83C254.16 235.83 253.16 236.87 253.16 238.07C253.16 239.27 254.16 240.27 255.36 240.27C256.60 240.27 257.60 239.27 257.60 238.07C257.60 236.87 256.60 235.83 255.36 235.83Z"
              fill="#000000" style="fill: rgb(0, 0, 0);"></path>
    </g>
    <g id="SvgjsG1096" rel="mainfill" name="symbol" xmlns:name="symbol_mainfill"
       transform="translate(68.2849997282028,-19.201202392578125) scale(3.7)" fill="#96CA2D">
        <g transform="translate(0,-1020.3622)" fill="#96CA2D">
            <path style="font: medium sans-serif; text-indent: 0px; text-align: start; text-decoration: none solid; letter-spacing: normal; word-spacing: normal; text-transform: none; direction: ltr; writing-mode: lr-tb; baseline-shift: baseline; text-anchor: start; white-space: normal; clip-rule: nonzero; display: inline; overflow: visible; visibility: visible; opacity: 1; isolation: auto; mix-blend-mode: normal; color-interpolation: srgb; color-interpolation-filters: linearrgb; fill-opacity: 1; fill-rule: nonzero; stroke: none; stroke-width: 1px; stroke-linecap: round; stroke-linejoin: miter; stroke-miterlimit: 4; stroke-dasharray: none; stroke-dashoffset: 0; stroke-opacity: 1; color-rendering: auto; image-rendering: auto; shape-rendering: auto; text-rendering: auto; fill: rgb(150, 202, 45);"
                  d="m 17.576862,1025.5943 c -1.23399,0.3308 -1.91473,1.5574 -1.73242,2.793 -0.59876,0.4535 -0.98802,1.1174 -1.03321,1.8418 -1.07791,0.2267 -1.98511,0.9518 -2.44921,1.9492 -0.6659,-0.3654 -1.47886,-0.3754 -2.20313,-0.074 -0.4523101,-0.3659 -0.9812901,-0.6451 -1.5683601,-0.6367 l -0.002,0 0,0 c -0.64726,0.013 -1.26816,0.2717 -1.72852,0.7324 -0.34224,0.3423 -0.55024,0.7555 -0.63672,1.1914 -1.78675,0.154 -3.2031202,1.6453 -3.2031202,3.4707 5.1e-4,0.2432 0.0353,0.4819 0.0859,0.7187 -0.0566,0.084 -0.0865,0.1823 -0.0859,0.2832 0.002,1.4087 0.37282,2.7666 1.0214802,4.0215 0.0702,0.1621 0.14503,0.277 0.20313,0.3789 0.8893,1.5467 2.22746,2.91 3.92969,3.9512 -0.0956,0.1968 -0.1543,0.4148 -0.1543,0.6465 0,0.1763 0.0367,0.3423 0.0937,0.5 l -3.30078,0 c -0.67616,-0.01 -0.67616,1.0096 0,1 l 4.70703,0 20.9921901,0 c 0.0334,10e-5 0.0668,0 0.0996,-0.01 0.59202,-0.1194 0.50433,-0.9911 -0.0996,-0.9902 l -6.58594,0 c 0.057,-0.1578 0.0937,-0.3238 0.0937,-0.5 0,-0.2277 -0.0559,-0.4426 -0.14844,-0.6368 0.54637,-0.3343 1.05984,-0.6988 1.5293,-1.0937 0.54767,-0.426 -0.13254,-1.232 -0.64453,-0.7637 -0.42649,0.3588 -0.89863,0.6875 -1.39844,0.9942 l -14.6543001,0 c -1.34709,-0.8233 -2.4193,-1.851 -3.19531,-3 l 3.80078,0 c 0.67616,0.01 0.67616,-1.0096 0,-1 l -4.38867,0 c -0.16199,-0.3264 -0.30382,-0.6603 -0.41992,-1 l 7.0117201,0 c 0.67616,0.01 0.67616,-1.0096 0,-1 l -7.2812501,0 c -0.0665,-0.33 -0.11341,-0.6633 -0.13672,-1 l 23.8442701,10e-5 c -0.044,0.6456 -0.10599,1.2903 -0.31055,1.9063 -0.21093,0.6328 0.73829,0.9492 0.94922,0.3164 0.29077,-0.8756 0.44318,-1.7917 0.44336,-2.7227 -3e-5,-0.2761 -0.22387,-0.5 -0.5,-0.5 l -0.50195,0 c -3.5e-4,-0.01 3.2e-4,-0.017 0,-0.025 0.36614,-0.2172 0.73571,-0.4441 0.95117,-0.8164 0.22812,-0.3941 0.25325,-0.8536 0.24609,-1.3047 0.39406,-0.2183 0.77796,-0.4681 1.00586,-0.8613 l 0.002,0 c 0.50815,-0.8834 0.34023,-1.9397 -0.26757,-2.7305 0.50806,-1.1499 0.16448,-2.5219 -0.94727,-3.1641 l -0.002,0 c -0.072,-0.041 -0.15326,-0.064 -0.23633,-0.066 -0.22666,-0.1024 -0.46415,-0.1679 -0.71094,-0.1992 -0.074,-0.044 -0.15806,-0.068 -0.24414,-0.07 l 0,0 c -0.83835,-0.019 -1.59343,0.4193 -2.07031,1.0977 -0.97326,-0.1089 -1.95135,0.2682 -2.45313,1.1367 -0.106,0.1835 -0.16572,0.3816 -0.20117,0.5859 -0.15082,-0.2684 -0.36328,-0.5029 -0.58789,-0.7207 0.12336,-0.4319 0.2181,-0.8802 0.10156,-1.3183 -0.26217,-0.9749 -1.11712,-1.5946 -2.09375,-1.7344 -0.3218,-0.8608 -1.07002,-1.4378 -1.97656,-1.5625 -0.29178,-0.075 -0.60482,-0.073 -0.9574,-0.014 z m 0.66053,0.912 0.002,0 c 0.67396,0.01 1.25536,0.4571 1.43164,1.1074 0.003,0.011 0.005,0.026 0.006,0.029 0.0438,0.2399 0.25424,0.4132 0.49805,0.4102 0.68692,-0.01 1.28643,0.4459 1.46484,1.1093 l -0.002,0 c 0.0875,0.3288 0.0606,0.6767 -0.0762,0.9883 -0.0938,0.2143 -0.0265,0.4651 0.16211,0.6035 0.27504,0.202 0.47441,0.4925 0.5625,0.8223 l -0.002,0 c 0.0527,0.1979 0.0542,0.4043 0.0215,0.6113 -0.0995,0.1 -0.19127,0.207 -0.26368,0.3321 -0.22818,0.3942 -0.2533,0.8534 -0.24609,1.3046 -0.34589,0.1925 -0.67899,0.4153 -0.91016,0.7325 -0.16991,-0.3193 -0.37804,-0.6146 -0.62695,-0.877 l -1.5625,-5.8301 c -0.0546,-0.2189 -0.24904,-0.3741 -0.47461,-0.3789 -0.33656,-0.01 -0.58428,0.3129 -0.49219,0.6367 l 1.2461,4.6543 c -0.0322,-0.015 -0.0611,-0.035 -0.0937,-0.049 -0.39181,-1.4044 -1.61494,-2.4169 -3.06836,-2.539 0.0466,-0.4738 0.30825,-0.9075 0.74219,-1.1524 0.20378,-0.1159 0.2996,-0.3579 0.23046,-0.582 -0.006,-0.019 -0.008,-0.029 -0.008,-0.029 -10e-4,0 -0.003,-0.01 -0.004,-0.014 -0.21568,-0.8053 0.25384,-1.6213 1.05859,-1.8379 0.12927,-0.034 0.26562,-0.053 0.4043,-0.053 z m 9.55468,2.6152 c 0.25126,0.01 0.49711,0.075 0.71485,0.2012 l 0.002,0 0.002,0 c 0.71934,0.4173 0.96125,1.3236 0.54688,2.0449 -0.004,0.01 -0.007,0.012 -0.0117,0.018 -0.142,0.2006 -0.11716,0.4747 0.0586,0.6465 0.49089,0.4797 0.59328,1.2232 0.25196,1.8184 -0.17087,0.2948 -0.43636,0.523 -0.75391,0.6464 -0.21787,0.085 -0.34767,0.3098 -0.3125,0.5411 0.0517,0.3379 -0.0143,0.6828 -0.18555,0.9785 -0.17049,0.2946 -0.43489,0.5228 -0.75195,0.6465 -0.21788,0.085 -0.34768,0.3097 -0.3125,0.541 0.008,0.052 0.007,0.1039 0.01,0.1562 l -2.60547,0 3.76562,-6.5195 c 0.19758,-0.3318 -0.0396,-0.7529 -0.42578,-0.7559 -0.18285,0 -0.35211,0.096 -0.4414,0.2559 l -4.05274,7.0195 -1.23047,0 c -0.001,-0.1331 -0.0552,-0.2604 -0.15039,-0.3535 -0.49088,-0.4805 -0.59292,-1.2271 -0.25,-1.8223 0.17056,-0.2933 0.43584,-0.5212 0.75195,-0.6445 0.21787,-0.085 0.34767,-0.3098 0.3125,-0.541 -0.0517,-0.3377 0.0124,-0.6828 0.1836,-0.9785 0.1705,-0.2946 0.43692,-0.5228 0.7539,-0.6465 0.21788,-0.085 0.34768,-0.3098 0.3125,-0.541 -0.0514,-0.3373 0.0128,-0.6813 0.1836,-0.9766 l 0.002,0 c 0.34374,-0.595 1.03942,-0.8801 1.70117,-0.6953 0.23072,0.065 0.47484,-0.043 0.58203,-0.2578 0.006,-0.011 0.0103,-0.021 0.0156,-0.031 0.2746,-0.4759 0.78446,-0.7627 1.33398,-0.75 z m -12.26562,2.0274 c 0.91894,0 1.73027,0.4983 2.16406,1.2597 -0.16726,-0.02 -0.33146,-0.049 -0.50391,-0.049 -0.27613,10e-5 -0.49997,0.2239 -0.5,0.5 l 0,3.5645 c -0.0833,-0.1201 -0.17479,-0.2348 -0.27929,-0.3399 -0.32258,-0.3226 -0.76044,-0.465 -1.19922,-0.5742 -0.10898,-0.4349 -0.24918,-0.8706 -0.56836,-1.1914 -0.32216,-0.3224 -0.75915,-0.4648 -1.19727,-0.5742 -0.0709,-0.2825 -0.16073,-0.5617 -0.29882,-0.8125 0.31568,-1.0499 1.27126,-1.7825 2.38281,-1.7832 z m -6.9199201,1.3164 0.002,0 c 0.4034,-0.01 0.79015,0.153 1.07617,0.4375 0.007,0.01 0.0122,0.012 0.0254,0.027 0.15816,0.1803 0.4220401,0.2229 0.6289101,0.1015 0.591,-0.3501 1.33784,-0.2565 1.82422,0.2286 0.23981,0.2408 0.39044,0.5546 0.42773,0.8925 0.0253,0.2336 0.20977,0.4181 0.44336,0.4434 0.33913,0.037 0.65504,0.1887 0.89649,0.4297 0.24001,0.2412 0.39074,0.5562 0.42773,0.8945 0.0253,0.2336 0.20977,0.4181 0.44336,0.4434 0.33912,0.037 0.65504,0.1888 0.89648,0.4297 0.16062,0.1614 0.27619,0.3556 0.34961,0.5664 l -3.32031,0 -3.7735001,-3.7734 c -0.0945,-0.097 -0.22418,-0.1509 -0.35937,-0.1504 -0.44708,0 -0.66718,0.5447 -0.34766,0.8574 l 3.0664101,3.0664 -3.4941401,0 c -0.38027,-0.4819 -0.44799,-1.1402 -0.12891,-1.6797 0.11977,-0.201 0.0841,-0.4583 -0.0859,-0.6191 -0.012,-0.011 -0.025,-0.023 -0.0371,-0.035 -0.58981,-0.5899 -0.58981,-1.5312 0,-2.1211 0.27481,-0.275 0.64654,-0.4314 1.03907,-0.4395 z m 9.0800701,1.0918 c 1.48645,0.2557 2.66797,1.3367 2.66797,2.8027 10e-6,0.3514 -0.0869,0.6815 -0.21093,1 l -2.45704,0 z m -11.4472601,0.8281 c 0.0845,0.3959 0.25624,0.7808 0.52344,1.1133 -0.25175,0.6054 -0.28403,1.2698 -0.0762,1.8613 l -2.60742,0 c -0.0343,-0.1657 -0.0582,-0.3324 -0.0586,-0.502 0,-1.2903 0.96761,-2.3324 2.21875,-2.4726 z m 20.9804701,7.3574 c -0.16468,0.012 -0.31305,0.1037 -0.39649,0.2461 -0.22318,0.3652 -0.47442,0.7196 -0.75586,1.0606 -0.49383,0.5185 0.35441,1.2182 0.76954,0.6347 0.31056,-0.3764 0.59137,-0.7673 0.83984,-1.1738 0.20727,-0.3269 -0.0194,-0.7552 -0.40625,-0.7676 -0.0169,-8e-4 -0.0339,-8e-4 -0.0508,0 z m -17.6992201,4.6172 13.0000001,0 c 0.28563,0 0.5,0.2143 0.5,0.5 0,0.2855 -0.21437,0.5 -0.5,0.5 l -13.0000001,0 c -0.28563,0 -0.5,-0.2145 -0.5,-0.5 0,-0.2857 0.21437,-0.5 0.5,-0.5 z m -8.0585902,1 c -0.66667001,0.034 -0.61589001,1.0339 0.0508,1 l 0.95703,0 c 0.67575,0.012 0.67973,-1.0065 0.004,-1 -10e-4,0 -0.003,0 -0.004,0 l -0.95703,0 c -0.0169,-9e-4 -0.0339,-9e-4 -0.0508,0 z"
                  fill="#96CA2D"></path>
        </g>
    </g>
</svg>